<svg xmlns="http://www.w3.org/2000/svg" viewBox="0 0 297.25 314.42"><g fill="#EC008C"><path d="M50.14 49.32l-3.33-7.93-.82 3.08-12.63-12.63-.71.7 12.64 12.64-3.08.81zM80.91 80.09l-3.33-7.92-.81 3.07-12.64-12.63-.7.71 12.63 12.63-3.08.82zM112.1 111.28l-3.33-7.92-.82 3.07L95.32 93.8l-.7.71 12.63 12.63-3.08.81zM153.74 101.87l-8.59.09 2.54 1.92-20.47 8.61.39.92 20.46-8.61-.4 3.16zM200.68 102.72l-7.51-4.19 1.25 2.92-21.49-2.61-.13.99 21.5 2.62-1.92 2.53zM242.55 127.68l-4.42-7.38-.37 3.16-18.65-13.98-.6.8 18.65 13.98-2.93 1.24zM266.22 169.98l-.15-8.6-1.9 2.56-8.81-20.53-.91.39 8.8 20.53-3.16-.38zM269.66 188.99l-.99-.14-3 21.3-2.5-1.97 2.11 8.34 4.33-7.43-2.95 1.2zM258.51 235.18l-.8-.6-14.54 19.29-1.24-2.93-2.19 8.31 7.39-4.4-3.16-.38zM224.34 271.7l-.39-.92-19.96 8.35.41-3.16-6.08 6.08 8.59-.08-2.53-1.92zM178.19 284.28l-21.06-2.62 1.93-2.53-8.3 2.24 7.49 4.21-1.24-2.93 21.06 2.62zM132.51 273.54l-18.19-13.77 2.94-1.23-8.31-2.22 4.38 7.4.39-3.16 18.18 13.78zM96.93 239.91l-8.19-19.66 3.16.41-6.06-6.09.05 8.59 1.93-2.53 8.19 19.67zM88.69 175.57l-2.25-8.3-4.21 7.49 2.93-1.24L82.6 194l1 .12 2.55-20.48zM111.38 125.39l-7.4 4.38 3.16.39-13.55 17.93.79.6 13.56-17.93 1.23 2.94z"/></g><g stroke-miterlimit="10"><circle fill="#AAF" stroke="#414042" cx="267.69" cy="179.45" r="9.59"/><circle fill="#AAF" stroke="#414042" cx="262" cy="226.38" r="9.59"/><circle fill="#AAF" stroke="#414042" cx="232.32" cy="265.62" r="9.59"/><circle fill="#AAF" stroke="#414042" cx="188.16" cy="283.99" r="9.59"/><circle fill="#AAF" stroke="#414042" cx="141.39" cy="278.21" r="9.59"/><circle fill="#AAF" stroke="#414042" cx="102.26" cy="248.57" r="9.59"/><circle fill="#AAF" stroke="#414042" cx="83.9" cy="204.42" r="9.59"/><circle fill="#AAF" stroke="#414042" cx="89.68" cy="157.65" r="9.59"/><circle fill="#AAF" stroke="#414042" cx="119.31" cy="118.52" r="9.59"/><circle fill="#AAF" stroke="#414042" cx="163.47" cy="100.15" r="9.59"/><circle fill="#AAF" stroke="#414042" cx="210.23" cy="105.93" r="9.59"/><circle fill="#AAF" stroke="#414042" cx="249.33" cy="135.53" r="9.59"/><circle fill="#AAF" stroke="#414042" cx="267.69" cy="179.45" r="9.59"/><circle fill="#AFA" stroke="#000" cx="26.36" cy="25.55" r="9.59"/><circle fill="#AFA" stroke="#000" cx="56.91" cy="56.1" r="9.59"/><circle fill="#AFA" stroke="#000" cx="88.06" cy="87.25" r="9.59"/></g><path d="M120.3 122.51h-1.7v-5.45h-2.11v-1.28c1.19.02 2.28-.38 2.46-1.67h1.36v8.4zM160.95 99.43c-.06-1.92 1.03-3.39 3.05-3.39 1.54 0 2.88.98 2.88 2.63 0 1.26-.67 1.96-1.5 2.54-.83.59-1.81 1.07-2.42 1.93h3.97v1.46h-6.16c.01-1.94 1.2-2.77 2.65-3.75.74-.5 1.75-1.02 1.76-2.05 0-.79-.53-1.3-1.26-1.3-1.01 0-1.33 1.04-1.33 1.93h-1.64zM209.65 104.74c.73.06 1.79-.08 1.79-1.04 0-.71-.56-1.12-1.19-1.12-.85 0-1.31.64-1.29 1.5h-1.62c.06-1.71 1.17-2.9 2.9-2.9 1.34 0 2.82.83 2.82 2.33 0 .79-.4 1.5-1.18 1.71v.02c.92.2 1.49.97 1.49 1.91 0 1.76-1.47 2.76-3.12 2.76-1.88 0-3.15-1.13-3.12-3.06h1.62c.04.91.49 1.66 1.48 1.66.77 0 1.37-.53 1.37-1.32 0-1.27-1.12-1.25-1.94-1.25v-1.2zM249.57 137.2h-3.55v-1.56l3.65-4.89h1.52v5.05h1.12v1.4h-1.12v1.94h-1.62v-1.94zm0-4.32h-.04l-2.17 2.92h2.21v-2.92zM270.45 176.48h-3.47l-.34 1.91.02.02c.46-.47.98-.65 1.64-.65 1.65 0 2.59 1.28 2.59 2.85 0 1.73-1.43 3.06-3.12 3.02-1.63 0-3.09-.9-3.12-2.66h1.7c.08.74.64 1.26 1.38 1.26.89 0 1.45-.78 1.45-1.62 0-.88-.54-1.57-1.45-1.57-.61 0-.95.22-1.28.67h-1.54l.83-4.64h4.69v1.41zM263.16 224.89c-.11-.56-.54-1.04-1.13-1.04-1.24 0-1.56 1.62-1.61 2.55l.02.02c.47-.66 1.08-.94 1.89-.94.72 0 1.45.34 1.93.86.44.52.65 1.21.65 1.87 0 1.71-1.19 3.07-2.94 3.07-2.54 0-3.23-2.22-3.23-4.34 0-2.05.91-4.39 3.3-4.39 1.45 0 2.53.85 2.72 2.33h-1.6zm-2.58 3.44c0 .78.5 1.56 1.35 1.56.82 0 1.28-.78 1.28-1.54 0-.79-.41-1.58-1.28-1.58-.91 0-1.35.73-1.35 1.56zM235.03 262.84c-1.76 1.54-2.72 4.69-2.75 6.93h-1.82c.19-2.48 1.22-4.89 2.82-6.81h-3.98v-1.58h5.73v1.46zM188.01 280.23c2.09 0 2.81 1.44 2.81 2.25 0 .83-.43 1.5-1.22 1.76v.02c1 .23 1.57 1 1.57 2.05 0 1.76-1.58 2.64-3.14 2.64-1.62 0-3.19-.82-3.19-2.63 0-1.07.6-1.82 1.58-2.06v-.02c-.82-.23-1.24-.9-1.24-1.73 0-1.5 1.47-2.28 2.83-2.28zm.02 7.45c.82 0 1.44-.58 1.44-1.42 0-.8-.65-1.34-1.44-1.34-.83 0-1.49.47-1.49 1.33 0 .87.67 1.43 1.49 1.43zm-.02-3.9c.7 0 1.26-.38 1.26-1.1 0-.43-.2-1.16-1.26-1.16-.68 0-1.28.42-1.28 1.16 0 .73.6 1.1 1.28 1.1zM140.99 280.26c.11.56.54 1.04 1.13 1.04 1.24 0 1.56-1.62 1.61-2.55l-.02-.02c-.47.66-1.08.94-1.9.94-.72 0-1.45-.34-1.93-.86-.44-.52-.65-1.21-.65-1.87 0-1.71 1.19-3.07 2.94-3.07 2.54 0 3.23 2.22 3.23 4.34 0 2.05-.91 4.39-3.3 4.39-1.45 0-2.53-.85-2.72-2.33h1.61zm2.58-3.44c0-.78-.5-1.56-1.36-1.56-.82 0-1.28.78-1.28 1.54 0 .79.41 1.58 1.28 1.58.91 0 1.36-.73 1.36-1.56zM99.47 252.94h-1.7v-5.45h-2.11v-1.28c1.19.03 2.28-.38 2.46-1.67h1.36v8.4zM104.76 244.37c1.68 0 3.09 1.05 3.09 4.33 0 3.35-1.42 4.4-3.09 4.4-1.66 0-3.07-1.05-3.07-4.4 0-3.27 1.42-4.33 3.07-4.33zm0 7.33c1.39 0 1.39-2.05 1.39-3 0-.88 0-2.93-1.39-2.93-1.37 0-1.37 2.05-1.37 2.93.01.95.01 3 1.37 3zM81.65 208.18h-1.7v-5.45h-2.11v-1.28c1.19.02 2.28-.38 2.46-1.67h1.36v8.4zM88.32 208.18h-1.7v-5.45h-2.11v-1.28c1.19.02 2.28-.38 2.46-1.67h1.36v8.4zM87.31 161.38h-1.7v-5.45H83.5v-1.28c1.19.02 2.28-.38 2.46-1.67h1.36v8.4zM89.72 156.21c-.06-1.92 1.03-3.39 3.05-3.39 1.54 0 2.88.98 2.88 2.63 0 1.26-.67 1.96-1.5 2.54-.83.59-1.81 1.07-2.42 1.93h3.97v1.46h-6.16c.01-1.94 1.2-2.77 2.65-3.75.74-.5 1.75-1.02 1.76-2.05 0-.79-.53-1.3-1.26-1.3-1.01 0-1.33 1.04-1.33 1.93h-1.64zM25.55 20.87h1.93l3.2 8.56h-1.96l-.65-1.91h-3.2l-.67 1.91h-1.9l3.25-8.56zm-.18 5.25h2.22l-1.08-3.14h-.02l-1.12 3.14zM53.76 51.99h4.03c1.63 0 2.73.53 2.73 2.12 0 .84-.42 1.43-1.16 1.79 1.04.3 1.57 1.1 1.57 2.17 0 1.74-1.48 2.48-3.02 2.48h-4.15v-8.56zm1.88 3.46h1.91c.66 0 1.15-.3 1.15-1.02 0-.82-.62-.98-1.29-.98h-1.76v2zm0 3.64h2.01c.74 0 1.39-.24 1.39-1.13 0-.88-.55-1.22-1.35-1.22h-2.05v2.35zM90.43 85.88c-.12-.85-.94-1.5-1.87-1.5-1.69 0-2.33 1.44-2.33 2.94 0 1.43.64 2.87 2.33 2.87 1.15 0 1.8-.79 1.94-1.92h1.82c-.19 2.13-1.67 3.5-3.77 3.5-2.65 0-4.21-1.98-4.21-4.45 0-2.54 1.56-4.52 4.21-4.52 1.88 0 3.47 1.1 3.69 3.08h-1.81z"/></svg>